<svg width="44" height="66" fill="none" xmlns="http://www.w3.org/2000/svg"><path d="M20.444 41c-.301 0-.602-.1-.802-.4-5.416-6.1-6.72-7.5-7.02-7.9-.702-.9-1.103-2.1-1.103-3.3 0-3 2.406-5.4 5.515-5.4 1.304 0 2.507.5 3.51 1.3 1.003-.8 2.307-1.3 3.51-1.3 3.009 0 5.516 2.4 5.516 5.4 0 1.3-.502 2.5-1.304 3.4l-7.02 7.9c-.2.2-.401.3-.802.3Zm-6.017-9.5c.3.4 3.51 4 6.117 6.9l6.218-7c.501-.5.702-1.2.702-2 0-1.8-1.505-3.3-3.31-3.3-1.003 0-2.005.5-2.707 1.3-.301.3-.602.4-.903.4-.3 0-.602-.2-.802-.4-.702-.8-1.705-1.3-2.708-1.3-1.805 0-3.31 1.5-3.31 3.3-.1.9.302 1.6.703 2.1-.1 0-.1 0 0 0Z" fill="#000"/><rect x="24" y="15" width="20" height="20" rx="10" fill="#7DB54F"/><path d="M30.13 26.76h1.4v-4.84l.1-.59-.4.47-1.1.79-.38-.51 2.2-1.7h.36v6.38h1.37v.74h-3.55v-.74Zm7.83-4.67c0 .353-.067.717-.2 1.09a6.56 6.56 0 0 1-.51 1.11c-.207.373-.44.74-.7 1.1-.26.353-.52.69-.78 1.01l-.49.43v.04l.64-.11h2.18v.74h-3.98v-.29c.147-.153.323-.343.53-.57a16.081 16.081 0 0 0 1.3-1.63c.22-.313.417-.63.59-.95.18-.32.323-.637.43-.95.107-.313.16-.61.16-.89 0-.327-.093-.597-.28-.81-.187-.22-.47-.33-.85-.33-.253 0-.5.053-.74.16-.24.1-.447.217-.62.35l-.33-.57c.233-.2.51-.357.83-.47.32-.113.663-.17 1.03-.17.287 0 .54.043.76.13.22.08.407.197.56.35.153.153.27.337.35.55.08.207.12.433.12.68Z" fill="#fff"/></svg>